
<svg xmlns="http://www.w3.org/2000/svg"
     xmlns:xlink="http://www.w3.org/1999/xlink" version="1.1" width="399"
     height="311">
    <defs/>
    <g transform=" scale(1) translate(-261.765625,-120)">
        <rect x="319" y="219" width="2" height="2" fill="#000000" stroke="none"
              pointer-events="none"/>
        <rect x="319" y="289" width="2" height="2" fill="#000000" stroke="none"
              pointer-events="none"/>
        <ellipse cx="320" cy="254.99" rx="24.994505" ry="24.994505"
                 fill="#ffffff" stroke="#000000" stroke-width="2"
                 pointer-events="none"/>
        <path d="M 302 252.53 C 338 252.53 338 252.53 338 252.53" fill="none"
              stroke="#000000" stroke-width="2" stroke-linecap="round"
              stroke-miterlimit="10" pointer-events="none"/>
        <path d="M 311 260 C 329 260 329 260 329 260" fill="none"
              stroke="#000000" stroke-width="2" stroke-linecap="round"
              stroke-miterlimit="10" pointer-events="none"/>
        <path d="M 320 221 L 320 251" fill="none" stroke="#000000"
              stroke-width="2" stroke-linecap="square" stroke-miterlimit="10"
              pointer-events="none"/>
        <path d="M 320 261 L 320 289" fill="none" stroke="#000000"
              stroke-width="2" stroke-linecap="square" stroke-miterlimit="10"
              pointer-events="none"/>
        <path d="M 305 243.25 C 315 243.25 315 243.25 315 243.25" fill="none"
              stroke="#000000" stroke-width="1.5" stroke-linecap="round"
              stroke-miterlimit="10" pointer-events="none"/>
        <path d="M 310 238.25 C 310 248.25 310 248.25 310 248.25" fill="none"
              stroke="#000000" stroke-width="1.5" stroke-linecap="round"
              stroke-miterlimit="10" pointer-events="none"/>
        <rect x="270" y="250" width="16" height="16" fill-opacity="0"
              fill="#dae2f2" stroke="none" pointer-events="none"/>
        <g fill="#000000" font-family="Arial,Helvetica" font-weight="bold"
           text-anchor="middle" font-size="20px">
            <text x="278" y="267">
                5V
            </text>
        </g>
        <rect x="569" y="339" width="2" height="2" fill="#000000" stroke="none"
              pointer-events="none"/>
        <rect x="609" y="309" width="2" height="2" fill="#000000" stroke="none"
              pointer-events="none"/>
        <rect x="609" y="369" width="2" height="2" fill="#000000" stroke="none"
              pointer-events="none"/>
        <path d="M 571 340 L 594 340" fill="none" stroke="#000000"
              stroke-width="2" stroke-linecap="square" stroke-miterlimit="10"
              pointer-events="none"/>
        <path d="M 595 345 L 610 355" fill="none" stroke="#000000"
              stroke-width="2" stroke-linejoin="round" stroke-linecap="round"
              stroke-miterlimit="10" pointer-events="none"/>
        <path d="M 595 335 L 610 325" fill="none" stroke="#000000"
              stroke-width="2" stroke-linejoin="round" stroke-linecap="round"
              stroke-miterlimit="10" pointer-events="none"/>
        <path d="M 610 311 L 610 324" fill="none" stroke="#000000"
              stroke-width="2" stroke-linecap="square" stroke-miterlimit="10"
              pointer-events="none"/>
        <path d="M 610 356 L 610 369" fill="none" stroke="#000000"
              stroke-width="2" stroke-linecap="square" stroke-miterlimit="10"
              pointer-events="none"/>
        <path d="M 595 323 L 595 357" fill="none" stroke="#000000"
              stroke-width="2" stroke-linejoin="round" stroke-linecap="round"
              stroke-miterlimit="10" pointer-events="none"/>
        <path d="M 602.16 353.56 L 609.7 354.61 L 605.26 348.42 Z"
              fill="#000000" stroke="#000000" stroke-linejoin="round"
              stroke-linecap="round" stroke-miterlimit="10"
              pointer-events="none"/>
        <rect x="609" y="149" width="2" height="2" fill="#000000" stroke="none"
              pointer-events="none"/>
        <rect x="609" y="209" width="2" height="2" fill="#000000" stroke="none"
              pointer-events="none"/>
        <path d="M 610 162 L 617 165 L 610 168" fill="none" stroke="#000000"
              stroke-width="2" stroke-linejoin="round" stroke-linecap="round"
              stroke-miterlimit="10" pointer-events="none"/>
        <path d="M 610 168 L 603 171 L 610 174" fill="none" stroke="#000000"
              stroke-width="2" stroke-linejoin="round" stroke-linecap="round"
              stroke-miterlimit="10" pointer-events="none"/>
        <path d="M 610 174 L 617 177 L 610 180" fill="none" stroke="#000000"
              stroke-width="2" stroke-linejoin="round" stroke-linecap="round"
              stroke-miterlimit="10" pointer-events="none"/>
        <path d="M 610 180 L 603 183 L 610 186" fill="none" stroke="#000000"
              stroke-width="2" stroke-linejoin="round" stroke-linecap="round"
              stroke-miterlimit="10" pointer-events="none"/>
        <path d="M 610 186 L 617 189 L 610 192" fill="none" stroke="#000000"
              stroke-width="2" stroke-linejoin="round" stroke-linecap="round"
              stroke-miterlimit="10" pointer-events="none"/>
        <path d="M 610 192 L 603 195 L 610 198" fill="none" stroke="#000000"
              stroke-width="2" stroke-linejoin="round" stroke-linecap="round"
              stroke-miterlimit="10" pointer-events="none"/>
        <path d="M 610 151 L 610 161" fill="#000000" stroke="#000000"
              stroke-width="2" stroke-linecap="square" stroke-miterlimit="10"
              pointer-events="none"/>
        <path d="M 610 199 L 610 209" fill="#000000" stroke="#000000"
              stroke-width="2" stroke-linecap="square" stroke-miterlimit="10"
              pointer-events="none"/>
        <rect x="630" y="170" width="19" height="13" fill-opacity="0"
              fill="#dae2f2" stroke="none" pointer-events="none"/>
        <g fill="#000000" font-family="Arial,Helvetica" font-weight="bold"
           text-anchor="middle" font-size="20px">
            <text x="639.5" y="185.5">
                220
            </text>
        </g>
        <rect x="589" y="219" width="2" height="2" fill="#000000" stroke="none"
              transform="rotate(180,600,250)" pointer-events="none"/>
        <rect x="589" y="279" width="2" height="2" fill="#000000" stroke="none"
              transform="rotate(180,600,250)" pointer-events="none"/>
        <path d="M 582 242.26 C 604 242.26 598 242.26 598 242.26" fill="none"
              stroke="#000000" stroke-width="2" stroke-linecap="round"
              stroke-miterlimit="10" transform="rotate(180,600,250)"
              pointer-events="none"/>
        <path d="M 589.86 242.54 C 589.86 242.54 589.86 242.54 582 257.26 C 597.72 257.26 597.72 257.26 597.72 257.26 Z"
              fill="#000000" stroke="#000000" stroke-width="1.49"
              stroke-linejoin="round" stroke-linecap="round"
              stroke-miterlimit="10" transform="rotate(180,600,250)"
              pointer-events="none"/>
        <path d="M 590 221 L 590 279" fill="#000000" stroke="#000000"
              stroke-width="2" stroke-linecap="square" stroke-miterlimit="10"
              transform="rotate(180,600,250)" pointer-events="none"/>
        <path d="M 608.25 238.77 L 612.49 243.01 L 615.32 235.94 Z"
              fill="#000000" stroke="#000000" stroke-linejoin="round"
              stroke-linecap="square" stroke-miterlimit="10"
              transform="rotate(180,600,250)" pointer-events="none"/>
        <path d="M 604 247.23 L 612.49 238.74" fill="none" stroke="#000000"
              stroke-width="2" stroke-linejoin="round" stroke-linecap="round"
              stroke-miterlimit="10" transform="rotate(180,600,250)"
              pointer-events="none"/>
        <path d="M 606.57 227.71 L 610.81 231.96 L 613.64 224.89 Z"
              fill="#000000" stroke="#000000" stroke-linejoin="round"
              stroke-linecap="round" stroke-miterlimit="10"
              transform="rotate(180,600,250)" pointer-events="none"/>
        <path d="M 602.33 236.22 L 610.81 227.73" fill="none" stroke="#000000"
              stroke-width="2" stroke-linejoin="round" stroke-linecap="round"
              stroke-miterlimit="10" transform="rotate(180,600,250)"
              pointer-events="none"/>
        <rect x="429" y="309" width="2" height="2" fill="#000000" stroke="none"
              pointer-events="none"/>
        <rect x="429" y="369" width="2" height="2" fill="#000000" stroke="none"
              pointer-events="none"/>
        <rect x="459" y="339" width="2" height="2" fill="#000000" stroke="none"
              pointer-events="none"/>
        <path d="M 430 322 L 437 325 L 430 328" fill="none" stroke="#000000"
              stroke-width="2" stroke-linejoin="round" stroke-linecap="round"
              stroke-miterlimit="10" pointer-events="none"/>
        <path d="M 430 328 L 423 331 L 430 334" fill="none" stroke="#000000"
              stroke-width="2" stroke-linejoin="round" stroke-linecap="round"
              stroke-miterlimit="10" pointer-events="none"/>
        <path d="M 430 334 L 437 337 L 430 340" fill="none" stroke="#000000"
              stroke-width="2" stroke-linejoin="round" stroke-linecap="round"
              stroke-miterlimit="10" pointer-events="none"/>
        <path d="M 430 340 L 423 343 L 430 346" fill="none" stroke="#000000"
              stroke-width="2" stroke-linejoin="round" stroke-linecap="round"
              stroke-miterlimit="10" pointer-events="none"/>
        <path d="M 430 346 L 437 349 L 430 352" fill="none" stroke="#000000"
              stroke-width="2" stroke-linejoin="round" stroke-linecap="round"
              stroke-miterlimit="10" pointer-events="none"/>
        <path d="M 430 352 L 423 355 L 430 358" fill="none" stroke="#000000"
              stroke-width="2" stroke-linejoin="round" stroke-linecap="round"
              stroke-miterlimit="10" pointer-events="none"/>
        <path d="M 430 311 L 430 321" fill="#000000" stroke="#000000"
              stroke-width="2" stroke-linecap="square" stroke-miterlimit="10"
              pointer-events="none"/>
        <path d="M 430 359 L 430 369" fill="#000000" stroke="#000000"
              stroke-width="2" stroke-linecap="square" stroke-miterlimit="10"
              pointer-events="none"/>
        <path d="M 445 340 L 459 340" fill="#000000" stroke="#000000"
              stroke-width="2" stroke-linecap="square" stroke-miterlimit="10"
              pointer-events="none"/>
        <path d="M 446.77 342.69 C 446.61 342.64 444.45 342.02 441.99 341.32 C 439.52 340.61 437.5 340.03 437.5 340.01 C 437.5 340 439.53 339.43 442 338.75 C 444.47 338.07 446.63 337.48 446.8 337.43 L 447.11 337.35 L 447.09 340.06 L 447.08 342.77 L 446.77 342.69 Z"
              fill="#000000" stroke="#000000" stroke-linejoin="round"
              stroke-linecap="square" stroke-miterlimit="10"
              pointer-events="none"/>
        <rect x="509" y="309" width="2" height="2" fill="#000000" stroke="none"
              transform="rotate(90,510,340)" pointer-events="none"/>
        <rect x="509" y="369" width="2" height="2" fill="#000000" stroke="none"
              transform="rotate(90,510,340)" pointer-events="none"/>
        <path d="M 510 322 L 517 325 L 510 328" fill="none" stroke="#000000"
              stroke-width="2" stroke-linejoin="round" stroke-linecap="round"
              stroke-miterlimit="10" transform="rotate(90,510,340)"
              pointer-events="none"/>
        <path d="M 510 328 L 503 331 L 510 334" fill="none" stroke="#000000"
              stroke-width="2" stroke-linejoin="round" stroke-linecap="round"
              stroke-miterlimit="10" transform="rotate(90,510,340)"
              pointer-events="none"/>
        <path d="M 510 334 L 517 337 L 510 340" fill="none" stroke="#000000"
              stroke-width="2" stroke-linejoin="round" stroke-linecap="round"
              stroke-miterlimit="10" transform="rotate(90,510,340)"
              pointer-events="none"/>
        <path d="M 510 340 L 503 343 L 510 346" fill="none" stroke="#000000"
              stroke-width="2" stroke-linejoin="round" stroke-linecap="round"
              stroke-miterlimit="10" transform="rotate(90,510,340)"
              pointer-events="none"/>
        <path d="M 510 346 L 517 349 L 510 352" fill="none" stroke="#000000"
              stroke-width="2" stroke-linejoin="round" stroke-linecap="round"
              stroke-miterlimit="10" transform="rotate(90,510,340)"
              pointer-events="none"/>
        <path d="M 510 352 L 503 355 L 510 358" fill="none" stroke="#000000"
              stroke-width="2" stroke-linejoin="round" stroke-linecap="round"
              stroke-miterlimit="10" transform="rotate(90,510,340)"
              pointer-events="none"/>
        <path d="M 510 311 L 510 321" fill="#000000" stroke="#000000"
              stroke-width="2" stroke-linecap="square" stroke-miterlimit="10"
              transform="rotate(90,510,340)" pointer-events="none"/>
        <path d="M 510 359 L 510 369" fill="#000000" stroke="#000000"
              stroke-width="2" stroke-linecap="square" stroke-miterlimit="10"
              transform="rotate(90,510,340)" pointer-events="none"/>
        <rect x="500" y="310" width="18" height="13" fill-opacity="0"
              fill="#dae2f2" stroke="none" pointer-events="none"/>
        <g fill="#000000" font-family="Arial,Helvetica" font-weight="bold"
           text-anchor="middle" font-size="20px">
            <text x="509" y="325.5">
                10k
            </text>
        </g>
        <path d="M 320 220 L 320 130 L 610 130 L 610 150" fill="none"
              stroke="#000000" stroke-width="2" stroke-miterlimit="10"
              pointer-events="none"/>
        <path d="M 320 290 L 320 420 L 610 420 L 610 370" fill="none"
              stroke="#000000" stroke-width="2" stroke-miterlimit="10"
              pointer-events="none"/>
        <path d="M 430 370 L 430 418" fill="none" stroke="#000000"
              stroke-width="2" stroke-miterlimit="10" pointer-events="none"/>
        <ellipse cx="430" cy="420" rx="2" ry="2" fill="#000000" stroke="#000000"
                 stroke-width="2" pointer-events="none"/>
        <path d="M 480 340 L 460 340" fill="none" stroke="#000000"
              stroke-width="2" stroke-miterlimit="10" pointer-events="none"/>
        <path d="M 540 340 L 570 340" fill="none" stroke="#000000"
              stroke-width="2" stroke-miterlimit="10" pointer-events="none"/>
        <path d="M 430 310 L 430 132" fill="none" stroke="#000000"
              stroke-width="2" stroke-miterlimit="10" pointer-events="none"/>
        <ellipse cx="430" cy="130" rx="2" ry="2" fill="#000000" stroke="#000000"
                 stroke-width="2" pointer-events="none"/>
        <path d="M 610 210 L 610 220" fill="none" stroke="#000000"
              stroke-width="2" stroke-miterlimit="10" pointer-events="none"/>
        <path d="M 610 280 L 610 310" fill="none" stroke="#000000"
              stroke-width="2" stroke-miterlimit="10" pointer-events="none"/>
    </g>
</svg>